#!OML:ASF H:\Terrain\Patient Classification 1\Terrain2\Thursday\justin.ASF
:FULLY-SPECIFIED
:DEGREES
1061
root -1.39996 17.7448 33.0508 -178.399 6.61586 -175.571
lowerback 5.28611 1.5637 5.22893
upperback 2.36893 2.66955 3.46392
thorax -0.457106 1.47845 0.488616
lowerneck -13.2556 -3.09187 -8.17696
upperneck 36.1092 1.51107 0.612705
head 14.76 0.88795 2.27643
rclavicle 2.87244e-014 5.56597e-014
rhumerus -23.8587 -4.98013 -80.3462
rradius 28.5559
rwrist -11.1454
rhand -22.7651 12.8999
rfingers 7.12502
rthumb 3.66992 -17.0483
lclavicle 2.87244e-014 5.56597e-014
lhumerus -37.5699 17.0859 78.458
lradius 22.3356
lwrist -3.99858
lhand -15.2286 21.1968
lfingers 7.12502
lthumb 10.9443 50.8916
rfemur -4.92258 -5.48364 26.5823
rtibia 27.8313
rfoot -20.3914 -2.89539
rtoes 9.29588
lfemur -17.4098 7.69088 -15.185
ltibia 40.3581
lfoot -18.0892 -0.866633
ltoes -4.51537
1062
root -1.40348 17.734 33.0476 -178.364 6.19418 -175.535
lowerback 5.25185 1.61234 5.32617
upperback 2.23964 2.73112 3.38337
thorax -0.560786 1.50155 0.346778
lowerneck -13.0285 -3.17612 -7.98615
upperneck 35.9994 1.33303 0.545938
head 14.6639 0.840329 2.18289
rclavicle 2.49475e-014 1.82882e-014
rhumerus -24.301 -5.83389 -80.272
rradius 28.3153
rwrist -10.4281
rhand -23.231 13.1127
rfingers 7.12502
rthumb 3.21997 -16.8428
lclavicle 2.49475e-014 1.82882e-014
lhumerus -37.7861 17.1922 78.2059
lradius 22.0357
lwrist -4.4961
lhand -14.6636 21.5054
lfingers 7.12502
lthumb 11.4892 51.1706
rfemur -5.01127 -5.60429 26.6421
rtibia 27.9659
rfoot -20.4699 -3.09376
rtoes 9.45755
lfemur -17.1216 7.74457 -15.1843
ltibia 40.1824
lfoot -18.0389 -0.761697
ltoes -6.00219
1063
root -1.41103 17.7305 33.0402 -178.383 5.59841 -175.624
lowerback 5.21487 1.44668 5.15006
upperback 2.18945 2.50544 3.46764
thorax -0.610746 1.38735 0.542764
lowerneck -13.101 -3.06376 -8.31902
upperneck 35.9507 1.52918 0.728501
head 14.6473 0.901859 2.34651
rclavicle -2.10712e-014 -3.73715e-014
rhumerus -24.5639 -5.6776 -80.2089
rradius 28.1274
rwrist -10.1765
rhand -24.0201 12.8715
rfingers 7.12502
rthumb 2.45793 -17.094
lclavicle -2.10712e-014 -3.73715e-014
lhumerus -38.115 17.8109 78.1351
lradius 21.9334
lwrist -4.67527
lhand -15.3325 21.4274
lfingers 7.12502
lthumb 10.844 51.1274
rfemur -5.05139 -5.82091 26.5574
rtibia 28.1218
rfoot -20.6618 -3.42913
rtoes 8.90849
lfemur -16.7583 7.27795 -15.2595
ltibia 39.9149
lfoot -17.5073 -1.27884
ltoes -2.93121
1064
root -1.42365 17.7298 33.0313 -178.489 4.93684 -175.641
lowerback 5.16466 1.40752 5.27142
upperback 2.16988 2.45559 3.43467
thorax -0.597725 1.36306 0.445481
lowerneck -13.129 1.17213 -9.56481
upperneck 35.9558 -0.444047 2.92375
head 14.5901 -2.40676 2.48834
rclavicle -1.94809e-014 -5.24792e-014
rhumerus -25.1601 -5.77965 -80.0933
rradius 28.4143
rwrist -10.4945
rhand -23.8117 12.5474
rfingers 7.12502
rthumb 2.65924 -17.4158
lclavicle -1.94809e-014 -5.24792e-014
lhumerus -38.2668 17.86 78.1086
lradius 21.7706
lwrist -4.88762
lhand -15.1641 21.2381
lfingers 7.12502
lthumb 11.0065 50.9295
rfemur -5.00081 -5.97737 26.5459
rtibia 28.3618
rfoot -20.9466 -3.90249
rtoes 8.42194
lfemur -16.223 6.75087 -15.2189
ltibia 39.4742
lfoot -16.8546 -1.94148
ltoes 0.0371149
1065
root -1.43558 17.7211 33.0267 -178.553 4.53981 -175.636
lowerback 4.92362 1.48142 5.51193
upperback 2.25368 2.53415 3.28771
thorax -0.356924 1.40781 0.167953
lowerneck -13.0025 0.991037 -9.25104
upperneck 35.8408 -0.716931 2.69946
head 14.5312 -2.4953 2.29867
rclavicle 3.51849e-014 2.22639e-014
rhumerus -25.6081 -6.41585 -80.0143
rradius 28.6139
rwrist -10.637
rhand -23.0618 12.7704
rfingers 7.12502
rthumb 3.38346 -17.1825
lclavicle 3.51849e-014 2.22639e-014
lhumerus -38.1916 17.8072 77.9689
lradius 21.597
lwrist -5.375
lhand -14.8309 21.5046
lfingers 7.12502
lthumb 11.3278 51.1787
rfemur -5.01637 -5.79045 26.5795
rtibia 28.6151
rfoot -21.1424 -4.42486
rtoes 8.52435
lfemur -15.7012 6.79166 -15.2612
ltibia 38.8655
lfoot -16.3383 -1.96768
ltoes -2.37879
1066
root -1.44643 17.7096 33.0198 -178.649 4.28065 -175.963
lowerback 4.80011 1.48448 5.18898
upperback 2.34169 2.49484 3.13997
thorax -0.205541 1.38531 0.203427
lowerneck -13.0973 0.874042 -9.00364
upperneck 35.7472 -0.828268 2.47231
head 14.5193 -2.5209 2.14617
rclavicle 2.28602e-015 3.49861e-014
rhumerus -25.7058 -6.96797 -79.9791
rradius 28.2684
rwrist -10.5234
rhand -22.6807 12.9444
rfingers 7.12502
rthumb 3.75148 -17.0023
lclavicle 2.28602e-015 3.49861e-014
lhumerus -38.2127 18.0346 77.8022
lradius 21.5744
lwrist -5.69002
lhand -15.2713 22.1935
lfingers 7.12502
lthumb 10.9031 51.8904
rfemur -5.04104 -5.94445 26.1638
rtibia 28.8355
rfoot -21.2401 -4.50771
rtoes 8.44122
lfemur -15.1105 6.64561 -15.6864
ltibia 38.168
lfoot -15.8972 -2.30593
ltoes -0.567226
1067
root -1.4597 17.7045 33.0095 -178.676 4.11549 -176.18
lowerback 4.76089 1.52891 4.81948
upperback 2.35719 2.52895 3.13492
thorax -0.182364 1.3979 0.403336
lowerneck -13.4817 0.788328 -9.24164
upperneck 35.9167 -0.937415 2.78063
head 14.6967 -2.55551 2.30169
rclavicle 4.96962e-015 -2.22639e-014
rhumerus -25.7602 -7.34561 -79.8045
rradius 27.6687
rwrist -10.3082
rhand -22.622 13.1043
rfingers 7.12502
rthumb 3.80817 -16.8415
lclavicle 4.96962e-015 -2.22639e-014
lhumerus -38.3191 17.9518 77.9867
lradius 21.6261
lwrist -5.48811
lhand -15.3961 22.1806
lfingers 7.12502
lthumb 10.7827 51.8838
rfemur -5.10724 -6.08423 25.8311
rtibia 29.042
rfoot -21.3835 -4.38556
rtoes 8.71598
lfemur -14.5753 6.19575 -15.9523
ltibia 37.444
lfoot -15.7161 -3.25199
ltoes 4.28094
1068
root -1.47514 17.7003 33.0007 -178.587 3.8583 -175.882
lowerback 4.5973 1.64846 5.13722
upperback 2.37063 2.69577 3.16431
thorax -0.0593342 1.48882 0.256977
lowerneck -13.6167 0.640724 -9.33651
upperneck 35.6779 -1.14705 3.19055
head 14.633 -2.55628 2.46285
rclavicle -1.19271e-015 -1.59028e-015
rhumerus -26.0412 -7.94159 -79.6092
rradius 27.566
rwrist -10.5086
rhand -22.1055 13.0858
rfingers 7.12502
rthumb 4.3069 -16.8504
lclavicle -1.19271e-015 -1.59028e-015
lhumerus -38.1669 17.0306 78.5735
lradius 21.7095
lwrist -4.77261
lhand -15.4456 21.9708
lfingers 7.12502
lthumb 10.735 51.6765
rfemur -5.23595 -5.97558 26.138
rtibia 29.2131
rfoot -21.5801 -4.62625
rtoes 9.3506
lfemur -14.2582 5.75303 -15.6428
ltibia 36.7088
lfoot -15.721 -4.16102
ltoes 5.70229
1069
root -1.49029 17.6938 32.9939 -178.57 3.31501 -175.724
lowerback 4.63359 1.67913 5.40057
upperback 2.27117 2.75015 3.09305
thorax -0.164137 1.51291 0.031714
lowerneck -13.393 0.465475 -8.83799
upperneck 35.2588 -1.33593 2.79846
head 14.4004 -2.5777 2.18633
rclavicle 1.26228e-014 3.33958e-014
rhumerus -26.6948 -8.38466 -79.563
rradius 27.8806
rwrist -10.7848
rhand -21.9531 12.29
rfingers 7.12502
rthumb 4.4541 -17.6432
lclavicle 1.26228e-014 3.33958e-014
lhumerus -38.144 16.3094 78.8584
lradius 21.7143
lwrist -4.48614
lhand -15.5389 22.0801
lfingers 7.12502
lthumb 10.645 51.7904
rfemur -5.28154 -5.9802 26.3422
rtibia 29.334
rfoot -21.778 -5.20235
rtoes 8.99447
lfemur -13.9664 5.04056 -15.4707
ltibia 35.9808
lfoot -15.7552 -4.7455
ltoes 7.05893
1070
root -1.50541 17.6858 32.9884 -178.571 2.87459 -175.8
lowerback 4.98609 1.64332 5.24666
upperback 1.96689 2.72673 3.10186
thorax -0.683005 1.48035 0.105078
lowerneck -13.9253 0.48843 -9.40404
upperneck 36.224 -1.55399 3.56552
head 14.9988 -2.72895 2.56712
rclavicle -1.63997e-014 3.18055e-015
rhumerus -27.4572 -8.55026 -79.3867
rradius 27.8083
rwrist -10.5938
rhand -22.3469 11.804
rfingers 7.12502
rthumb 4.07378 -18.1368
lclavicle -1.63997e-014 3.18055e-015
lhumerus -38.6727 16.2522 78.8161
lradius 21.7047
lwrist -4.51701
lhand -15.2647 21.3875
lfingers 7.12502
lthumb 10.9094 51.0841
rfemur -5.31712 -5.95802 26.2787
rtibia 29.4529
rfoot -21.8683 -5.7075
rtoes 8.51972
lfemur -13.6593 4.3578 -15.5637
ltibia 35.2642
lfoot -15.8991 -4.93331
ltoes 7.54254
1071
root -1.52424 17.6776 32.98 -178.514 2.72454 -175.796
lowerback 3.9152 1.78941 5.62827
upperback 2.5266 2.82802 2.88521
thorax 0.525828 1.57089 -0.273168
lowerneck -13.7878 0.223408 -8.96375
upperneck 35.2978 -1.695 3.20102
head 14.5405 -2.66518 2.32376
rclavicle -2.69353e-014 -6.36111e-014
rhumerus -26.8442 -9.77881 -79.3616
rradius 27.2154
rwrist -9.99893
rhand -22.549 12.3686
rfingers 7.12502
rthumb 3.87862 -17.5758
lclavicle -2.69353e-014 -6.36111e-014
lhumerus -37.7208 15.9776 79.0844
lradius 21.5728
lwrist -4.38727
lhand -14.9911 20.7936
lfingers 7.12502
lthumb 11.1734 50.4761
rfemur -5.44305 -6.03835 26.2292
rtibia 29.6419
rfoot -21.9035 -5.82657
rtoes 8.5248
lfemur -13.3683 3.89875 -15.6053
ltibia 34.5253
lfoot -16.1582 -4.82492
ltoes 6.29993
